<svg version="1.1" id="Layer_1" xmlns="http://www.w3.org/2000/svg" xmlns:xlink="http://www.w3.org/1999/xlink" x="0px" y="0px"
	 width="100%" viewBox="0 0 275 275" enable-background="new 0 0 275 275" xml:space="preserve">
<path fill="#FFFFFF" opacity="1.000000" stroke="none" 
	d="
M177.000000,276.000000 
	C118.000000,276.000000 59.500000,276.000000 1.000000,276.000000 
	C1.000000,184.333328 1.000000,92.666664 1.000000,1.000000 
	C92.666664,1.000000 184.333328,1.000000 276.000000,1.000000 
	C276.000000,92.666664 276.000000,184.333328 276.000000,276.000000 
	C243.166672,276.000000 210.333328,276.000000 177.000000,276.000000 
M141.240692,208.931992 
	C142.335068,209.945709 143.397736,210.996323 144.528519,211.967651 
	C163.762726,228.489380 185.452606,232.758530 208.624130,222.454147 
	C231.538391,212.264175 243.479309,193.587097 243.899323,168.435974 
	C244.348846,141.518860 227.158447,119.597221 199.867447,110.135872 
	C200.049744,108.817398 200.194168,107.492401 200.419861,106.181396 
	C207.230759,66.617569 168.895859,30.436712 129.787857,39.524265 
	C96.565361,47.244194 77.716957,76.389206 82.991325,110.877235 
	C53.829708,117.989143 33.856739,146.578491 38.286228,175.777832 
	C41.973717,200.085876 55.592003,217.104172 79.039833,224.688126 
	C102.528740,232.285400 123.260681,226.189102 141.240692,208.931992 
z"/>
<path fill="#296CFF" opacity="1.000000" stroke="none" 
	d="
M83.741653,110.724823 
	C77.716957,76.389206 96.565361,47.244194 129.787857,39.524265 
	C168.895859,30.436712 207.230759,66.617569 200.419861,106.181396 
	C200.194168,107.492401 200.049744,108.817398 199.629730,110.838638 
	C192.254135,141.442261 161.867722,163.404434 126.584595,155.098602 
	C103.922737,148.043701 89.823586,133.234009 83.741653,110.724823 
z"/>
<path fill="#08C101" opacity="1.000000" stroke="none" 
	d="
M126.937164,155.228561 
	C161.867722,163.404434 192.254135,141.442261 199.631744,111.271202 
	C227.158447,119.597221 244.348846,141.518860 243.899323,168.435974 
	C243.479309,193.587097 231.538391,212.264175 208.624130,222.454147 
	C185.452606,232.758530 163.762726,228.489380 144.528519,211.967651 
	C143.397736,210.996323 142.335068,209.945709 140.852661,208.470337 
	C127.571381,192.564148 122.527985,175.107697 126.937164,155.228561 
z"/>
<path fill="#EC0101" opacity="1.000000" stroke="none" 
	d="
M126.584595,155.098602 
	C122.527985,175.107697 127.571381,192.564148 140.553391,208.355316 
	C123.260681,226.189102 102.528740,232.285400 79.039833,224.688126 
	C55.592003,217.104172 41.973717,200.085876 38.286228,175.777832 
	C33.856739,146.578491 53.829708,117.989143 83.366486,110.801025 
	C89.823586,133.234009 103.922737,148.043701 126.584595,155.098602 
z"/>
</svg>